<svg width="525" height="858" viewBox="0 0 525 858" fill="none" xmlns="http://www.w3.org/2000/svg">
<path d="M198.259 0.811279L11.7184 955.337H77.9193L213.544 0.811279H198.259ZM311.456 0.811279L447.025 955.337H513.259L326.74 0.811279H311.456ZM223.513 77.5571L220.079 101.54H304.921L301.487 77.5571H223.513ZM135.016 163.896L130.142 197.472H138.117L144.652 163.896H135.016ZM211.218 163.896L206.456 197.472H318.544L313.782 163.896H211.218ZM380.348 163.896L386.883 197.472H395.522L390.649 163.896H380.348ZM101.566 283.811L94.8101 326.981H112.864L121.282 283.811H101.566ZM194.161 283.811L188.07 326.981H336.93L330.839 283.811H194.161ZM403.718 283.811L412.136 326.981H430.411L423.877 283.811H403.718ZM61.8924 432.506L54.0285 494.862H80.0237L92.1519 432.506H61.8924ZM173.006 432.506L164.146 494.862H360.854L351.994 432.506H173.006ZM432.848 432.506L445.032 494.862H470.949L463.085 432.506H432.848ZM26.6155 614.778L18.3085 686.727H42.5427L56.5981 614.778H26.6155ZM147.199 614.778L136.899 686.727H388.101L377.801 614.778H147.199ZM468.402 614.778L482.468 686.727H506.725L498.418 614.778H468.402ZM0 845.015V904.493L11.6187 845.015H0ZM114.415 845.015L101.566 955.337H426.313L410.585 845.015H114.415ZM513.37 845.015L525 904.493V845.015H513.37Z" fill="#4B89C4"/>
</svg>